<?xml version="1.0" encoding="UTF-8"?>
<svg xmlns="http://www.w3.org/2000/svg" viewBox="0 0 512 512" role="img" aria-labelledby="title desc">
  <title>Coretek Icon</title>
  <desc>Rounded hexagon with gradient and a stylized C and T monogram.</desc>
  <defs>
    <linearGradient id="g" x1="0" y1="0" x2="1" y2="1">
      <stop offset="0%" stop-color="#3B82F6"/>
      <stop offset="100%" stop-color="#06B6D4"/>
    </linearGradient>
    <filter id="shadow" x="-20%" y="-20%" width="140%" height="140%">
      <feDropShadow dx="0" dy="8" stdDeviation="16" flood-color="#0b1020" flood-opacity="0.25"/>
    </filter>
  </defs>

  <g filter="url(#shadow)">
    <path d="M256 16c18 0 36 5 51 14l130 75c15 9 24 25 24 42v167c0 17-9 33-24 42l-130 75c-15 9-33 14-51 14s-36-5-51-14l-130-75c-15-9-24-25-24-42V147c0-17 9-33 24-42l130-75c15-9 33-14 51-14z" fill="url(#g)"/>
  </g>

  <g fill="none" stroke="#fff" stroke-width="36" stroke-linecap="round" stroke-linejoin="round">
    <path d="M336 176a112 112 0 1 0 0 160"/>
    <path d="M256 152v208"/>
    <path d="M192 200h160"/>
  </g>
</svg>
